<svg width="24" height="25" viewBox="0 0 24 25" fill="none" xmlns="http://www.w3.org/2000/svg">
<path d="M9.57 19.6218C9.38 19.6218 9.19 19.5518 9.04 19.4018L2.97 13.3318C2.68 13.0418 2.68 12.5618 2.97 12.2718L9.04 6.20175C9.33 5.91175 9.81 5.91175 10.1 6.20175C10.39 6.49175 10.39 6.97175 10.1 7.26175L4.56 12.8018L10.1 18.3418C10.39 18.6318 10.39 19.1118 10.1 19.4018C9.96 19.5518 9.76 19.6218 9.57 19.6218Z" fill="#292D32"/>
<path d="M20.5 13.5518H3.67001C3.26001 13.5518 2.92001 13.2118 2.92001 12.8018C2.92001 12.3918 3.26001 12.0518 3.67001 12.0518H20.5C20.91 12.0518 21.25 12.3918 21.25 12.8018C21.25 13.2118 20.91 13.5518 20.5 13.5518Z" fill="#292D32"/>
</svg>
