<svg width="24" height="24" viewBox="0 0 24 24" fill="none" xmlns="http://www.w3.org/2000/svg">
<path d="M12.75 4C13.16 4 13.5 4.34 13.5 4.75V10H18.75C19.16 10 19.5 10.34 19.5 10.75C19.5 11.16 19.16 11.5 18.75 11.5H12.75C12.34 11.5 12 11.16 12 10.75V4.75C12 4.34 12.34 4 12.75 4Z" fill="#292D32"/>
<path d="M4.75 12H10.75C11.16 12 11.5 12.34 11.5 12.75V18.75C11.5 19.16 11.16 19.5 10.75 19.5C10.34 19.5 10 19.16 10 18.75V13.5H4.75C4.34 13.5 4 13.16 4 12.75C4 12.34 4.34 12 4.75 12Z" fill="#292D32"/>
<path d="M13.5 11.2499C13.31 11.2499 13.12 11.1799 12.97 11.0299C12.68 10.7399 12.68 10.2599 12.97 9.96994L20.47 2.46994C20.76 2.17994 21.24 2.17994 21.53 2.46994C21.82 2.75994 21.82 3.23994 21.53 3.52994L14.03 11.0299C13.88 11.1799 13.69 11.2499 13.5 11.2499Z" fill="#292D32"/>
<path d="M3 21.7499C2.81 21.7499 2.62 21.6799 2.47 21.5299C2.18 21.2399 2.18 20.7599 2.47 20.4699L9.97 12.9699C10.26 12.6799 10.74 12.6799 11.03 12.9699C11.32 13.2599 11.32 13.7399 11.03 14.0299L3.53 21.5299C3.38 21.6799 3.19 21.7499 3 21.7499Z" fill="#292D32"/>
</svg>
