<svg width="24" height="25" viewBox="0 0 24 25" fill="none" xmlns="http://www.w3.org/2000/svg">
    <path d="M13.19 6.80176H6.79C6.53 6.80176 6.28 6.81176 6.04 6.84176C3.35 7.07176 2 8.66176 2 11.5918V15.5918C2 19.5918 3.6 20.3818 6.79 20.3818H7.19C7.41 20.3818 7.7 20.5318 7.83 20.7018L9.03 22.3018C9.56 23.0118 10.42 23.0118 10.95 22.3018L12.15 20.7018C12.3 20.5018 12.54 20.3818 12.79 20.3818H13.19C16.12 20.3818 17.71 19.0418 17.94 16.3418C17.97 16.1018 17.98 15.8518 17.98 15.5918V11.5918C17.98 8.40176 16.38 6.80176 13.19 6.80176ZM6.5 14.8018C5.94 14.8018 5.5 14.3518 5.5 13.8018C5.5 13.2518 5.95 12.8018 6.5 12.8018C7.05 12.8018 7.5 13.2518 7.5 13.8018C7.5 14.3518 7.05 14.8018 6.5 14.8018ZM9.99 14.8018C9.43 14.8018 8.99 14.3518 8.99 13.8018C8.99 13.2518 9.44 12.8018 9.99 12.8018C10.54 12.8018 10.99 13.2518 10.99 13.8018C10.99 14.3518 10.55 14.8018 9.99 14.8018ZM13.49 14.8018C12.93 14.8018 12.49 14.3518 12.49 13.8018C12.49 13.2518 12.94 12.8018 13.49 12.8018C14.04 12.8018 14.49 13.2518 14.49 13.8018C14.49 14.3518 14.04 14.8018 13.49 14.8018Z" fill="white"/>
    <path d="M21.98 7.59176V11.5918C21.98 13.5918 21.36 14.9518 20.12 15.7018C19.82 15.8818 19.47 15.6418 19.47 15.2918L19.48 11.5918C19.48 7.59176 17.19 5.30176 13.19 5.30176L7.1 5.31176C6.75 5.31176 6.51 4.96176 6.69 4.66176C7.44 3.42176 8.8 2.80176 10.79 2.80176H17.19C20.38 2.80176 21.98 4.40176 21.98 7.59176Z" fill="white"/>
</svg>
