<svg width="24" height="25" viewBox="0 0 24 25" fill="none" xmlns="http://www.w3.org/2000/svg">
<path d="M20.3799 21.9318C20.1799 21.9318 19.9899 21.8518 19.8499 21.7118L13.4699 15.3318C13.1799 15.0418 13.1799 14.5618 13.4699 14.2718L21.2 6.54177C21.39 6.35177 21.6799 6.28177 21.9399 6.35177C22.1999 6.43177 22.3999 6.64177 22.4599 6.90177C22.6499 7.75177 22.7499 8.70176 22.7499 9.80176V15.8018C22.7499 18.5718 22.1699 20.4418 20.9099 21.7118C20.7699 21.8518 20.5599 21.8818 20.3799 21.9318ZM15.0599 14.8018L20.3199 20.0618C20.9499 19.0918 21.2499 17.7118 21.2499 15.8018V9.80176C21.2499 9.39176 21.2399 9.01177 21.2099 8.65177L15.0599 14.8018Z" fill="#292D32"/>
<path d="M6.26999 23.2818C6.20999 23.2818 6.16001 23.2718 6.10001 23.2618C2.79001 22.5018 1.25 20.1318 1.25 15.8018V9.80176C1.25 4.37176 3.57 2.05176 9 2.05176H15C19.33 2.05176 21.7 3.59176 22.46 6.90176C22.52 7.15176 22.44 7.42176 22.26 7.60176L6.79999 23.0618C6.65999 23.2018 6.46999 23.2818 6.26999 23.2818ZM9 3.55176C4.39 3.55176 2.75 5.19176 2.75 9.80176V15.8018C2.75 19.2718 3.71001 21.0118 6.04001 21.7018L20.89 6.85176C20.21 4.52176 18.46 3.56175 14.99 3.56175H9V3.55176Z" fill="#292D32"/>
<path d="M14.9999 23.5518H8.99989C7.89989 23.5518 6.95989 23.4618 6.09989 23.2618C5.82989 23.2018 5.61987 23.0018 5.54987 22.7418C5.46987 22.4818 5.54988 22.2018 5.73988 22.0018L13.4699 14.2718C13.7599 13.9818 14.2399 13.9818 14.5299 14.2718L20.9099 20.6518C21.0499 20.7918 21.1299 20.9818 21.1299 21.1818C21.1299 21.3818 21.0499 21.5718 20.9099 21.7118C19.6399 22.9718 17.7699 23.5518 14.9999 23.5518ZM7.84989 22.0118C8.20989 22.0418 8.58989 22.0518 8.99989 22.0518H14.9999C16.9199 22.0518 18.2899 21.7518 19.2599 21.1218L13.9999 15.8618L7.84989 22.0118Z" fill="#292D32"/>
<path d="M9.11994 14.1117C8.48994 14.1117 7.85993 13.8817 7.35993 13.4117C5.76993 11.9017 5.12996 10.2417 5.50996 8.62175C5.88996 6.96175 7.33994 5.84174 9.11994 5.84174C10.8999 5.84174 12.35 6.96175 12.73 8.62175C13.1 10.2517 12.4599 11.9017 10.8699 13.4117C10.3799 13.8717 9.74994 14.1117 9.11994 14.1117ZM6.96995 8.95174C6.64995 10.3117 7.56994 11.5317 8.39994 12.3217C8.80994 12.7117 9.43994 12.7117 9.83994 12.3217C10.6599 11.5417 11.5799 10.3217 11.2699 8.95174C10.9999 7.76174 9.93994 7.33174 9.11994 7.33174C8.29994 7.33174 7.24995 7.76174 6.96995 8.95174Z" fill="#292D32"/>
<path d="M9.1499 10.2917C8.5999 10.2917 8.1499 9.84175 8.1499 9.29175C8.1499 8.74175 8.5899 8.29175 9.1499 8.29175H9.15991C9.70991 8.29175 10.1599 8.74175 10.1599 9.29175C10.1599 9.84175 9.6999 10.2917 9.1499 10.2917Z" fill="#292D32"/>
</svg>
