<svg width="24" height="25" viewBox="0 0 24 25" fill="none" xmlns="http://www.w3.org/2000/svg">
<path d="M5.46997 11.5518C4.75997 11.5518 4.03997 11.2918 3.48997 10.7618C1.64997 9.01176 0.909972 7.10176 1.33997 5.23176C1.84997 3.03176 3.77997 2.05176 5.46997 2.05176C7.15997 2.05176 9.09997 3.04176 9.59997 5.23176C10.03 7.10176 9.27997 9.01176 7.44997 10.7618C6.89997 11.2918 6.18997 11.5518 5.46997 11.5518ZM2.79997 5.57176C2.41997 7.24176 3.52997 8.72176 4.52997 9.67176C5.05997 10.1818 5.88997 10.1718 6.41997 9.67176C7.41997 8.72176 8.52997 7.24176 8.13997 5.56176C7.79997 4.08176 6.48997 3.55176 5.47997 3.55176C4.45997 3.55176 3.14997 4.08176 2.79997 5.57176Z" fill="#c084fc"/>
<path d="M5.51001 7.00177C4.96001 7.00177 4.51001 6.55177 4.51001 6.00177C4.51001 5.45177 4.95001 5.00177 5.51001 5.00177H5.52001C6.07001 5.00177 6.52001 5.45177 6.52001 6.00177C6.52001 6.55177 6.07001 7.00177 5.51001 7.00177Z" fill="#c084fc"/>
<path d="M18.49 23.5517C17.78 23.5517 17.06 23.2917 16.5 22.7617C14.65 21.0117 13.9 19.1017 14.34 17.2217C14.85 15.0317 16.79 14.0417 18.49 14.0417C20.19 14.0417 22.13 15.0317 22.64 17.2217C23.07 19.0917 22.32 21.0117 20.47 22.7517C19.92 23.2917 19.21 23.5517 18.49 23.5517ZM18.49 15.5517C17.47 15.5517 16.15 16.0817 15.8 17.5717C15.41 19.2417 16.53 20.7317 17.53 21.6817C18.06 22.1917 18.9 22.1917 19.44 21.6817C20.44 20.7317 21.56 19.2517 21.17 17.5817C20.84 16.0817 19.52 15.5517 18.49 15.5517Z" fill="#c084fc"/>
<path d="M18.53 19.0018C17.98 19.0018 17.53 18.5518 17.53 18.0018C17.53 17.4518 17.97 17.0018 18.53 17.0018H18.54C19.09 17.0018 19.54 17.4518 19.54 18.0018C19.54 18.5518 19.08 19.0018 18.53 19.0018Z" fill="#c084fc"/>
<path d="M12 20.5518H9.32C8.16 20.5518 7.15 19.8518 6.75 18.7718C6.34 17.6918 6.64 16.5018 7.51 15.7318L15.5 8.74176C15.98 8.32176 15.99 7.75176 15.85 7.36176C15.7 6.97176 15.32 6.55176 14.68 6.55176H12C11.59 6.55176 11.25 6.21176 11.25 5.80176C11.25 5.39176 11.59 5.05176 12 5.05176H14.68C15.84 5.05176 16.85 5.75176 17.25 6.83176C17.66 7.91176 17.36 9.10176 16.49 9.87176L8.5 16.8618C8.02 17.2818 8.01 17.8518 8.15 18.2418C8.3 18.6318 8.68 19.0518 9.32 19.0518H12C12.41 19.0518 12.75 19.3918 12.75 19.8018C12.75 20.2118 12.41 20.5518 12 20.5518Z" fill="#c084fc"/>
<path d="M12 20.5518H9.32C8.16 20.5518 7.15 19.8518 6.75 18.7718C6.34 17.6918 6.64 16.5018 7.51 15.7318L15.5 8.74176C15.98 8.32176 15.99 7.75176 15.85 7.36176C15.7 6.97176 15.32 6.55176 14.68 6.55176H12C11.59 6.55176 11.25 6.21176 11.25 5.80176C11.25 5.39176 11.59 5.05176 12 5.05176H14.68C15.84 5.05176 16.85 5.75176 17.25 6.83176C17.66 7.91176 17.36 9.10176 16.49 9.87176L8.5 16.8618C8.02 17.2818 8.01 17.8518 8.15 18.2418C8.3 18.6318 8.68 19.0518 9.32 19.0518H12C12.41 19.0518 12.75 19.3918 12.75 19.8018C12.75 20.2118 12.41 20.5518 12 20.5518Z" fill="#c084fc"/>
</svg>
