<svg width="24" height="25" viewBox="0 0 24 25" fill="none" xmlns="http://www.w3.org/2000/svg">
<path d="M14.75 12.5518H9.25C8.84 12.5518 8.5 12.2118 8.5 11.8018C8.5 11.3918 8.84 11.0518 9.25 11.0518H14.75C15.16 11.0518 15.5 11.3918 15.5 11.8018C15.5 12.2118 15.16 12.5518 14.75 12.5518Z" fill="#60A5FA"/>
<path d="M12 23.5618C10.52 23.5618 9.03 23.0018 7.87 21.8918C4.92 19.0518 1.66 14.5218 2.89 9.13176C4 4.24176 8.27 2.05176 12 2.05176C12 2.05176 12 2.05176 12.01 2.05176C15.74 2.05176 20.01 4.24176 21.12 9.14176C22.34 14.5318 19.08 19.0518 16.13 21.8918C14.97 23.0018 13.48 23.5618 12 23.5618ZM12 3.55176C9.09 3.55176 5.35 5.10176 4.36 9.46176C3.28 14.1718 6.24 18.2318 8.92 20.8018C10.65 22.4718 13.36 22.4718 15.09 20.8018C17.76 18.2318 20.72 14.1718 19.66 9.46176C18.66 5.10176 14.91 3.55176 12 3.55176Z" fill="#60A5FA"/>
</svg>
