<svg width="24" height="25" viewBox="0 0 24 25" fill="none" xmlns="http://www.w3.org/2000/svg">
<path d="M12 14.9718C9.87 14.9718 8.13 13.2418 8.13 11.1018C8.13 8.96176 9.87 7.24176 12 7.24176C14.13 7.24176 15.87 8.97176 15.87 11.1118C15.87 13.2518 14.13 14.9718 12 14.9718ZM12 8.74176C10.7 8.74176 9.63 9.80176 9.63 11.1118C9.63 12.4218 10.69 13.4818 12 13.4818C13.31 13.4818 14.37 12.4218 14.37 11.1118C14.37 9.80176 13.3 8.74176 12 8.74176Z" fill="#292D32"/>
<path d="M12 23.5618C10.52 23.5618 9.02999 23.0018 7.86999 21.8918C4.91999 19.0518 1.65999 14.5218 2.88999 9.13176C3.99999 4.24176 8.26999 2.05176 12 2.05176C12 2.05176 12 2.05176 12.01 2.05176C15.74 2.05176 20.01 4.24176 21.12 9.14176C22.34 14.5318 19.08 19.0518 16.13 21.8918C14.97 23.0018 13.48 23.5618 12 23.5618ZM12 3.55176C9.08999 3.55176 5.34999 5.10176 4.35999 9.46176C3.27999 14.1718 6.23999 18.2318 8.91999 20.8018C10.65 22.4718 13.36 22.4718 15.09 20.8018C17.76 18.2318 20.72 14.1718 19.66 9.46176C18.66 5.10176 14.91 3.55176 12 3.55176Z" fill="#292D32"/>
</svg>
