<svg width="24" height="25" viewBox="0 0 24 25" fill="none" xmlns="http://www.w3.org/2000/svg">
    <path d="M15.24 23.0717H15.11C10.67 23.0717 8.53002 21.3217 8.16002 17.4017C8.12002 16.9917 8.42002 16.6217 8.84002 16.5817C9.25002 16.5417 9.62002 16.8517 9.66002 17.2617C9.95002 20.4017 11.43 21.5717 15.12 21.5717H15.25C19.32 21.5717 20.76 20.1317 20.76 16.0617V9.54174C20.76 5.47174 19.32 4.03174 15.25 4.03174H15.12C11.41 4.03174 9.93002 5.22174 9.66002 8.42174C9.61002 8.83174 9.27002 9.14174 8.84002 9.10174C8.42002 9.07174 8.12001 8.70174 8.15001 8.29174C8.49001 4.31174 10.64 2.53174 15.11 2.53174H15.24C20.15 2.53174 22.25 4.63174 22.25 9.54174V16.0617C22.25 20.9717 20.15 23.0717 15.24 23.0717Z" fill="#FFFFFF"/>
    <path d="M14.88 13.5518H2C1.59 13.5518 1.25 13.2118 1.25 12.8018C1.25 12.3918 1.59 12.0518 2 12.0518H14.88C15.29 12.0518 15.63 12.3918 15.63 12.8018C15.63 13.2118 15.3 13.5518 14.88 13.5518Z" fill="#FFFFFF"/>
    <path d="M12.65 16.9018C12.46 16.9018 12.27 16.8318 12.12 16.6818C11.83 16.3918 11.83 15.9118 12.12 15.6218L14.94 12.8018L12.12 9.98185C11.83 9.69185 11.83 9.21185 12.12 8.92185C12.41 8.63185 12.89 8.63185 13.18 8.92185L16.53 12.2718C16.82 12.5618 16.82 13.0418 16.53 13.3318L13.18 16.6818C13.03 16.8318 12.84 16.9018 12.65 16.9018Z" fill="#FFFFFF"/>
</svg>
