<svg width="24" height="25" viewBox="0 0 24 25" fill="none" xmlns="http://www.w3.org/2000/svg">
<path opacity="0.4" d="M8.55998 4.14172V18.4717C8.21998 18.4817 7.87998 18.5617 7.62998 18.7117L5.27998 20.0517C3.63998 20.9917 2.28998 20.2117 2.28998 18.3117V8.58172C2.28998 7.95172 2.73998 7.17172 3.29998 6.85172L7.62998 4.37172C7.87998 4.23172 8.21998 4.15172 8.55998 4.14172Z" fill="#60A5FA"/>
<path d="M15.73 7.13182V21.4618C15.38 21.4718 15.04 21.4118 14.77 21.2818L9.52 18.6518C9.25 18.5218 8.91 18.4618 8.56 18.4718V4.14182C8.91 4.13182 9.25 4.19182 9.52 4.32182L14.77 6.95182C15.04 7.08182 15.38 7.14182 15.73 7.13182Z" fill="#2F6BB6"/>
<path opacity="0.4" d="M22 7.2917V17.0217C22 17.6517 21.55 18.4317 20.99 18.7517L16.66 21.2317C16.41 21.3717 16.07 21.4517 15.73 21.4617V7.1317C16.07 7.1217 16.41 7.0417 16.66 6.8917L19.01 5.5517C20.65 4.6117 22 5.3917 22 7.2917Z" fill="#60A5FA"/>
</svg>
