<svg width="24" height="25" viewBox="0 0 24 25" fill="none" xmlns="http://www.w3.org/2000/svg">
<path d="M8.5 19.8018H8C4 19.8018 2 18.8018 2 13.8018V8.80176C2 4.80176 4 2.80176 8 2.80176H16C20 2.80176 22 4.80176 22 8.80176V13.8018C22 17.8018 20 19.8018 16 19.8018H15.5C15.19 19.8018 14.89 19.9518 14.7 20.2018L13.2 22.2018C12.54 23.0818 11.46 23.0818 10.8 22.2018L9.3 20.2018C9.14 19.9818 8.77 19.8018 8.5 19.8018Z" stroke="#292D32" stroke-width="1.5" stroke-miterlimit="10" stroke-linecap="round" stroke-linejoin="round"/>
<path d="M7 8.80176H17" stroke="#292D32" stroke-width="1.5" stroke-linecap="round" stroke-linejoin="round"/>
<path d="M7 13.8018H13" stroke="#292D32" stroke-width="1.5" stroke-linecap="round" stroke-linejoin="round"/>
</svg>
