<svg width="24" height="25" viewBox="0 0 24 25" fill="none" xmlns="http://www.w3.org/2000/svg">
<path d="M17 2.80176H7C4.24 2.80176 2 5.03176 2 7.78176V13.7618V14.7618C2 17.5118 4.24 19.7418 7 19.7418H8.5C8.77 19.7418 9.13 19.9218 9.3 20.1418L10.8 22.1318C11.46 23.0118 12.54 23.0118 13.2 22.1318L14.7 20.1418C14.89 19.8918 15.19 19.7418 15.5 19.7418H17C19.76 19.7418 22 17.5118 22 14.7618V7.78176C22 5.03176 19.76 2.80176 17 2.80176ZM13 14.5518H7C6.59 14.5518 6.25 14.2118 6.25 13.8018C6.25 13.3918 6.59 13.0518 7 13.0518H13C13.41 13.0518 13.75 13.3918 13.75 13.8018C13.75 14.2118 13.41 14.5518 13 14.5518ZM17 9.55176H7C6.59 9.55176 6.25 9.21176 6.25 8.80176C6.25 8.39176 6.59 8.05176 7 8.05176H17C17.41 8.05176 17.75 8.39176 17.75 8.80176C17.75 9.21176 17.41 9.55176 17 9.55176Z" fill="#292D32"/>
</svg>
