<svg width="24" height="25" viewBox="0 0 24 25" fill="none" xmlns="http://www.w3.org/2000/svg">
<path d="M21.97 3.13176C21.25 2.31176 20.18 1.80176 19 1.80176C17.88 1.80176 16.86 2.26176 16.13 3.01176C15.71 3.44176 15.39 3.96176 15.2 4.54176C15.07 4.94176 15 5.36176 15 5.80176C15 6.55176 15.21 7.26176 15.58 7.86176C15.78 8.20176 16.04 8.51176 16.34 8.77176C17.04 9.41176 17.97 9.80176 19 9.80176C19.44 9.80176 19.86 9.73176 20.25 9.59176C21.17 9.30176 21.94 8.67176 22.42 7.86176C22.63 7.52176 22.79 7.13176 22.88 6.73176C22.96 6.43176 23 6.12176 23 5.80176C23 4.78176 22.61 3.84176 21.97 3.13176ZM20.49 6.53176H19.75V7.31176C19.75 7.72176 19.41 8.06176 19 8.06176C18.59 8.06176 18.25 7.72176 18.25 7.31176V6.53176H17.51C17.1 6.53176 16.76 6.19176 16.76 5.78176C16.76 5.37176 17.1 5.03176 17.51 5.03176H18.25V4.32176C18.25 3.91176 18.59 3.57176 19 3.57176C19.41 3.57176 19.75 3.91176 19.75 4.32176V5.03176H20.49C20.9 5.03176 21.24 5.37176 21.24 5.78176C21.24 6.19176 20.91 6.53176 20.49 6.53176Z" fill="white"/>
<path d="M22 12.8018C22 11.4918 21.75 10.2318 21.28 9.08176C20.97 9.30176 20.62 9.47176 20.25 9.59176C20.14 9.63176 20.03 9.66176 19.91 9.69176C20.29 10.6518 20.5 11.7018 20.5 12.8018C20.5 15.1218 19.56 17.2318 18.04 18.7718C17.75 18.4018 17.38 18.0618 16.94 17.7718C14.23 15.9518 9.79 15.9518 7.06 17.7718C6.62 18.0618 6.26 18.4018 5.96 18.7718C4.44 17.2318 3.5 15.1218 3.5 12.8018C3.5 8.11176 7.31 4.30176 12 4.30176C13.09 4.30176 14.14 4.51176 15.1 4.89176C15.13 4.77176 15.16 4.66176 15.2 4.54176C15.32 4.17176 15.49 3.83176 15.72 3.52176C14.57 3.05176 13.31 2.80176 12 2.80176C6.49 2.80176 2 7.29176 2 12.8018C2 15.7018 3.25 18.3118 5.23 20.1418C5.23 20.1518 5.23 20.1518 5.22 20.1618C5.32 20.2618 5.44 20.3418 5.54 20.4318C5.6 20.4818 5.65 20.5318 5.71 20.5718C5.89 20.7218 6.09 20.8618 6.28 21.0018C6.35 21.0518 6.41 21.0918 6.48 21.1418C6.67 21.2718 6.87 21.3918 7.08 21.5018C7.15 21.5418 7.23 21.5918 7.3 21.6318C7.5 21.7418 7.71 21.8418 7.93 21.9318C8.01 21.9718 8.09 22.0118 8.17 22.0418C8.39 22.1318 8.61 22.2118 8.83 22.2818C8.91 22.3118 8.99 22.3418 9.07 22.3618C9.31 22.4318 9.55 22.4918 9.79 22.5518C9.86 22.5718 9.93 22.5918 10.01 22.6018C10.29 22.6618 10.57 22.7018 10.86 22.7318C10.9 22.7318 10.94 22.7418 10.98 22.7518C11.32 22.7818 11.66 22.8018 12 22.8018C12.34 22.8018 12.68 22.7818 13.01 22.7518C13.05 22.7518 13.09 22.7418 13.13 22.7318C13.42 22.7018 13.7 22.6618 13.98 22.6018C14.05 22.5918 14.12 22.5618 14.2 22.5518C14.44 22.4918 14.69 22.4418 14.92 22.3618C15 22.3318 15.08 22.3018 15.16 22.2818C15.38 22.2018 15.61 22.1318 15.82 22.0418C15.9 22.0118 15.98 21.9718 16.06 21.9318C16.27 21.8418 16.48 21.7418 16.69 21.6318C16.77 21.5918 16.84 21.5418 16.91 21.5018C17.11 21.3818 17.31 21.2718 17.51 21.1418C17.58 21.1018 17.64 21.0518 17.71 21.0018C17.91 20.8618 18.1 20.7218 18.28 20.5718C18.34 20.5218 18.39 20.4718 18.45 20.4318C18.56 20.3418 18.67 20.2518 18.77 20.1618C18.77 20.1518 18.77 20.1518 18.76 20.1418C20.75 18.3118 22 15.7018 22 12.8018Z" fill="white"/>
<path d="M12 7.73175C9.93 7.73175 8.25 9.41175 8.25 11.4818C8.25 13.5118 9.84 15.1618 11.95 15.2218C11.98 15.2218 12.02 15.2218 12.04 15.2218C12.06 15.2218 12.09 15.2218 12.11 15.2218C12.12 15.2218 12.13 15.2218 12.13 15.2218C14.15 15.1518 15.74 13.5118 15.75 11.4818C15.75 9.41175 14.07 7.73175 12 7.73175Z" fill="white"/>
</svg>
